<svg width="180" height="180" viewBox="0 0 64 64" xmlns="http://www.w3.org/2000/svg">
  <defs>
    <linearGradient id="g" x1="0%" y1="0%" x2="100%" y2="100%">
      <stop offset="0%" stop-color="#a3ff00"/>
      <stop offset="100%" stop-color="#06b6d4"/>
    </linearGradient>
  </defs>
  <rect width="64" height="64" rx="14" fill="#0c0c14"/>
  <path d="M 14,34 C 14,21 22,12 32,12 C 42,12 50,21 50,34 L 50,42 C 50,46 47,49 43,49 L 37,49 L 37,44 L 27,44 L 27,49 L 21,49 C 17,49 14,46 14,42 Z" fill="url(#g)"/>
  <path d="M 18,28 C 18,22 24,18 32,18 C 40,18 46,22 46,28 L 46,36 L 18,36 Z" fill="#000" opacity="0.85"/>
  <path d="M 14,40 L 8,44 L 8,48 L 12,48" fill="none" stroke="#a3ff00" stroke-width="2.5" stroke-linecap="round"/>
  <circle cx="8" cy="46" r="2.5" fill="#a3ff00"/>
</svg>
